<svg width="402" height="402" viewBox="0 0 402 402" fill="none" xmlns="http://www.w3.org/2000/svg">
<path d="M203.01 226.628C202.675 226.628 202.172 226.628 201.837 226.628C201.335 226.628 200.665 226.628 200.162 226.628C162.14 225.455 133.665 195.808 133.665 159.293C133.665 122.108 163.982 91.79 201.167 91.79C238.352 91.79 268.67 122.108 268.67 159.293C268.503 195.975 239.86 225.455 203.512 226.628C203.177 226.628 203.177 226.628 203.01 226.628ZM201 116.748C177.55 116.748 158.622 135.843 158.622 159.125C158.622 182.073 176.545 200.665 199.325 201.503C199.827 201.335 201.502 201.335 203.177 201.503C225.622 200.33 243.21 181.905 243.377 159.125C243.377 135.843 224.45 116.748 201 116.748Z" fill="white"/>
<path d="M201 381.063C155.942 381.063 112.895 364.313 79.5625 333.828C76.5475 331.148 75.2075 327.128 75.5425 323.275C77.72 303.343 90.115 284.75 110.717 271.015C160.632 237.85 241.535 237.85 291.282 271.015C311.885 284.918 324.28 303.343 326.457 323.275C326.96 327.295 325.452 331.148 322.437 333.828C289.105 364.313 246.057 381.063 201 381.063ZM101.84 319.925C129.645 343.208 164.652 355.938 201 355.938C237.347 355.938 272.355 343.208 300.16 319.925C297.145 309.708 289.105 299.825 277.212 291.785C236.007 264.315 166.16 264.315 124.62 291.785C112.727 299.825 104.855 309.708 101.84 319.925Z" fill="white"/>
<path d="M201 381.062C101.673 381.062 20.9375 300.327 20.9375 201C20.9375 101.673 101.673 20.9375 201 20.9375C300.327 20.9375 381.062 101.673 381.062 201C381.062 300.327 300.327 381.062 201 381.062ZM201 46.0625C115.575 46.0625 46.0625 115.575 46.0625 201C46.0625 286.425 115.575 355.938 201 355.938C286.425 355.938 355.938 286.425 355.938 201C355.938 115.575 286.425 46.0625 201 46.0625Z" fill="white"/>
</svg>
